# xmcd
#
# Track frame offsets: 
#        150
#        14480
#        30988
#        52326
#        62036
#        75623
#        97012
#        115531
#        140157
#        153011
#        168938
#        185191
#        203556
#        217863
#        232802
#        249259
#        271502
#        283747
#        301568
#        316301
#
# Disc length: 4450 seconds
#
# Revision: 0
# Processed by: cddbd v1.5.1PL0 Copyright (c) Steve Scherf et al.
# Submitted via: ExactAudioCopy v0.95a5
#
DISCID=02116014
DTITLE=John Denver - The Best of John Denver
DYEAR=2004
DGENRE=Country
TTITLE0=Take Me Home Country Roads
TTITLE1=Leaving On A Jet Plane
TTITLE2=Rocky Mountain High
TTITLE3=The Eagle And The Hawk
TTITLE4=Annies Song
TTITLE5=Back Home Again
TTITLE6=Poems Prayers And Promises
TTITLE7=Sweet Surrender
TTITLE8=Thank God I'm A Country Boy
TTITLE9=I'm Sorry
TTITLE10=Calypso
TTITLE11=Welcome To My Morning
TTITLE12=How Can I Leave You Again
TTITLE13=For You
TTITLE14=Goodbye Again
TTITLE15=Falling Out Of Love
TTITLE16=Love Is The Master
TTITLE17=Some Days Are Diamonds
TTITLE18=Rhymes And Reasons
TTITLE19=Seasons Of The Heart
EXTD=
EXTT0=
EXTT1=
EXTT2=
EXTT3=
EXTT4=
EXTT5=
EXTT6=
EXTT7=
EXTT8=
EXTT9=
EXTT10=
EXTT11=
EXTT12=
EXTT13=
EXTT14=
EXTT15=
EXTT16=
EXTT17=
EXTT18=
EXTT19=
PLAYORDER=
